<?xml version="1.0" encoding="UTF-8"?>
<svg version="1.1" viewBox="0 0 1259 1142" width="1280" height="1280" xmlns="http://www.w3.org/2000/svg">
<path transform="translate(778)" d="m0 0h33l27 3 29 6 26 8 21 9 16 8 17 10 18 13 14 12 13 12 13 14 11 14 10 14 12 20 11 21 11 27 8 26 6 26 4 25 2 21 1 17v37l-2 28-5 35-6 28-8 30-12 35-13 31-15 31-13 23-12 20-10 15-12 17-13 17-13 16-12 14-12 13-26 26-8 7-13 11-17 13-15 11-18 12-25 15-26 14-29 13-29 11-25 8-31 8-26 6-25 6-27 4-14 1h-24l-21-3-23-6-24-10-16-8-16-9-11-9-7-7-10-14-8-16-7-21-4-22-1-10v-46l3-28 6-35 12-52 8-29 11-33 1-2h112l-3 11-18 53-12 36-9 30-10 37-7 32-5 31-2 21v32l3 19 5 15 7 11 8 7 8 4 8 3 8 1h10l22-3 25-7 25-10 21-11 16-11 12-9 11-9 12-11 11-11 7-8 10-12 14-19 14-22 13-23 13-27 11-28 8-25 7-28 5-27 3-26v-28l-3-24-5-21-7-20-8-17-9-13-11-13-11-11-17-13-21-12-19-8-23-7-23-4-9-1h-44l-27 4-25 6-24 8-25 11-23 12-2-1 8-17 12-21 12-17 8-10 12-14 14-14 11-9 17-13 18-11 21-11 24-9 24-6 20-3 26-1 25 2 26 5 27 9 25 12 18 11 14 11 20 18 7 8 13 16 10 16 8 16 8 19 7 23 5 25 2 17v48l-3 30-4 24-6 26-8 27-11 29-12 26 6-8 13-21 12-22 8-16 8-17 11-28 10-31 7-28 5-32 2-27v-29l-2-26-4-26-6-25-9-27-9-20-9-17-10-15-10-13-12-13-9-9-14-11-15-10-18-10-18-8-24-8-22-5-25-3h-37l-27 3-26 5-29 8-28 10-39 17 2-5 10-17 10-14 11-14 11-13 9-10 25-25 11-9 17-13 19-12 25-13 26-10 23-6 24-4zm83 630 1 2z" fill="#E5611D"/>
<path transform="translate(683,210)" d="m0 0 26 1 25 4 19 5 22 8 22 11 17 11 13 10 20 18 7 8 13 16 10 16 8 16 8 19 7 23 5 25 2 17v48l-3 30-4 24-6 26-8 27-11 29-13 28-6 14-7 11-6 11-9 16-12 19-9 12-10 13-1 2h-2l-2 4-9 11-14 15-18 18-7 6h-2v2l-10 8h-2v2l-15 11-7 5h-2v2l-7 4-17 11-12 7-18 8-14 5-2 2-22 6-28 5-23 2h-24l-21-3-23-6-24-10-16-8-16-9-11-9-7-7-10-14-8-16-7-21-4-22-1-10v-46l3-28 6-35 12-52 8-29 11-33 1-2h112l-3 11-18 53-12 36-9 30-10 37-7 32-5 31-2 21v32l3 19 5 15 7 11 8 7 8 4 8 3 8 1h10l22-3 25-7 25-10 21-11 16-11 12-9 11-9 12-11 11-11 7-8 10-12 14-19 14-22 13-23 13-27 11-28 8-25 7-28 5-27 3-26v-28l-3-24-5-21-7-20-8-17-9-13-11-13-11-11-17-13-21-12-19-8-23-7-23-4-9-1h-44l-27 4-25 6-24 8-25 11-23 12-2-1 8-17 12-21 12-17 8-10 12-14 14-14 11-9 17-13 18-11 21-11 24-9 24-6 20-3z" fill="#009843"/>
<path transform="translate(438,502)" d="m0 0h112l-3 11-18 53-12 36-9 30-10 37-7 32-5 31-2 21v32l3 19 5 15 7 11 8 7 12 6-1 1h-22l-1-1-15-3-11-2-16-7-12-8-12-11-11-14-8-15-8-24-4-22-1-10v-46l3-28 6-35 12-52 8-29 11-33z" fill="#005CA1"/>
<path transform="translate(1026,924)" d="m0 0h13l10 5 7 6 14 20 20 30 27 40 13 19v-100l4-10 7-6 8-3h8l9 3 5 4 5 10 1 5v173l-4 9-7 6-5 2h-14l-12-6-8-9-8-12-11-16-13-19-22-32-13-19-4-6 1 94-2 9-5 8-6 5-7 2h-8l-9-3-5-4-4-7-2-10v-169l3-9 6-7z" fill="#0C39A8"/>
<path transform="translate(18,925)" d="m0 0h57l15 2 16 5 11 7 7 7 6 10 3 10 1 7v15l-4 16-5 10-8 10 6 2 11 8 8 10 5 11 2 9v16l-3 14-5 12-7 9-9 8-16 8-17 4-10 1h-65l-8-2-6-4-3-8v-183l4-8 8-5zm29 41v41h24l8-3 7-6 3-7v-12l-3-6-5-5-6-2zm0 80v48l1 1h31l10-2 6-4 4-6 2-8v-9l-3-8-6-7-9-4-5-1z" fill="#0C39A7"/>
<path transform="translate(441,925)" d="m0 0h34l16 3 12 5 11 7 8 8 7 11 5 12 3 12 1 7v125l-4 11-5 6-6 3-5 1h-8l-8-3-7-6-4-11v-38h-66v32l-2 11-5 8-6 5-7 2h-8l-9-3-6-5-4-9-1-6v-120l3-18 5-13 7-12 6-7 12-9 14-6zm11 44-10 2-6 3-7 7-4 11v46h66v-41l-3-12-5-8-5-4-7-3-8-1z" fill="#0C39A7"/>
<path transform="translate(748,925)" d="m0 0h8l9 3 7 7 3 7 1 6v58h69v-57l3-12 8-9 9-3h8l9 3 5 4 5 10 1 6v165l-3 11-4 6-8 5-5 1h-8l-9-3-8-9-2-6-1-7v-60h-69v62l-4 13-4 5-8 4-4 1h-8l-9-3-5-4-4-8-2-10v-161l2-10 3-6 5-5 6-3z" fill="#0B3AA7"/>
<path transform="translate(197,925)" d="m0 0h9l10 4 6 7 3 9v61h70v-61l4-10 5-6 6-3 5-1h8l8 3 7 6 4 11v171l-4 11-8 7-7 2h-8l-9-3-6-5-4-8-1-5v-64h-70v65l-3 9-6 7-6 3-5 1h-8l-8-3-6-5-4-8-1-5v-170l3-9 6-7z" fill="#0C39A7"/>
<path transform="translate(622,920)" d="m0 0h29l16 4 12 6 7 7 3 5 1 4v11l-3 8-5 5-6 3h-12l-15-7-4-1h-15l-8 3-6 7-1 4v8l5 8 10 7 19 8 18 8 14 9 10 9 6 9 4 12 1 6v21l-4 16-7 13-11 12-14 9-14 5-17 3h-20l-17-3-13-5-11-7-7-7-3-7v-12l4-8 6-5 7-3h11l12 5 9 4 4 1h19l9-4 5-6 2-6v-8l-3-9-8-6-17-8-20-8-14-8-12-11-6-8-5-11-2-9v-20l3-13 7-13 7-8 12-9 15-7z" fill="#0C3AA8"/>
<path transform="translate(947,925)" d="m0 0h8l9 3 6 5 4 8 1 5v169l-4 11-5 6-6 3-5 1h-8l-9-3-7-8-3-9v-171l4-11 8-7z" fill="#0C39A8"/>
<path transform="translate(1231,925)" d="m0 0h8l9 3 5 4 5 10 1 4v168l-3 10-4 6-8 5-5 1h-8l-9-3-5-5-4-7-1-4v-172l4-11 8-7z" fill="#0C39A8"/>
<path transform="translate(483,402)" d="m0 0h23l16 4 16 8 11 8 5 5-1 4-6 6-4-2-10-8-10-6-16-5-8-1h-10l-12 2-13 5-10 6-9 8-4-1-6-8 9-9 14-8 12-5z" fill="#045EA2"/>
<path transform="translate(485,423)" d="m0 0h18l15 4 13 7 9 7-3 5-6 6-4-2-10-7-13-4h-19l-12 4-10 6-4 3-4-2-5-5 1-4 9-8 14-7z" fill="#045FA2"/>
<path transform="translate(487,447)" d="m0 0h16l10 4 9 6 2 3-5 8-5-1-10-6-4-1h-10l-10 4-6 3-8-7 5-6 12-6z" fill="#055FA3"/>
<path transform="translate(493,468)" d="m0 0 10 2 6 4-1 4-11 13-4-2-13-13 5-5z" fill="#035EA2"/>
</svg>
